<?xml version="1.0" encoding="UTF-8"?>
<svg width="12px" height="12px" viewBox="0 0 12 12" version="1.1" xmlns="http://www.w3.org/2000/svg" xmlns:xlink="http://www.w3.org/1999/xlink">
    <!-- Generator: Sketch 43.2 (39069) - http://www.bohemiancoding.com/sketch -->
    <title>Combined Shape Copy</title>
    <desc>Created with Sketch.</desc>
    <defs></defs>
    <g id="Scratch" stroke="none" stroke-width="1" fill="none" fill-rule="evenodd">
        <path d="M5.99740108,10.3760588 C8.41936205,10.3760588 10.3827493,8.40454908 10.3827493,5.97256855 C10.3827493,4.35552964 9.50912891,2.92554457 8.19469542,2.15986028 C7.44768819,5.08427236 5.02247704,7.33324894 2.01075468,7.81058014 C2.70531189,9.32701058 4.23283254,10.3760588 5.99740108,10.3760588 Z M12,5.97256855 C12,9.30142702 9.31254492,12 5.99740108,12 C2.76670735,12 0.132130168,9.43716296 0,6.22570576 C0.265975543,6.26188381 0.537483912,6.28056866 0.813338381,6.28056866 C4.12848222,6.28056866 6.8159373,3.58199568 6.8159373,0.253137209 C6.8159373,0.168337733 6.81419334,0.0839472668 6.81073946,0 C9.74118552,0.398599898 12,2.92070575 12,5.97256855 Z" id="Combined-Shape-Copy" fill="#606060" fill-rule="nonzero"></path>
    </g>
</svg>