<?xml version="1.0" encoding="UTF-8"?>
<svg width="12px" height="11px" viewBox="0 0 12 11" version="1.1" xmlns="http://www.w3.org/2000/svg" xmlns:xlink="http://www.w3.org/1999/xlink">
    <!-- Generator: Sketch 43.1 (39012) - http://www.bohemiancoding.com/sketch -->
    <title>twitter</title>
    <desc>Created with Sketch.</desc>
    <defs></defs>
    <g id="Symbols" stroke="none" stroke-width="1" fill="none" fill-rule="evenodd">
        <g id="footer" transform="translate(-188.000000, -179.000000)" fill="#CACACA">
            <path d="M199.930611,180.216903 C199.488387,180.42116 199.016182,180.560212 198.517744,180.62306 C199.025177,180.303319 199.415683,179.798175 199.599318,179.196401 C199.124115,179.487075 198.597194,179.699189 198.036544,179.817029 C197.588325,179.314242 196.949724,179 196.240667,179 C194.882516,179 193.780704,180.15484 193.780704,181.576785 C193.780704,181.781043 193.80319,181.977444 193.844415,182.165989 C191.799692,182.06386 189.986576,181.034718 188.773084,179.479219 C188.560217,179.857095 188.440292,180.297034 188.440292,180.776253 C188.440292,181.671843 188.87502,182.459806 189.534608,182.922527 C189.13136,182.909172 188.751348,182.792902 188.420055,182.600429 L188.420055,182.631853 C188.420055,183.880965 189.267025,184.924249 190.393571,185.161502 C190.186701,185.219637 189.969336,185.251061 189.745227,185.251061 C189.587825,185.251061 189.437919,185.235349 189.288012,185.205496 C189.602816,186.229925 190.509749,186.975465 191.589074,186.996676 C190.749599,187.688008 189.685264,188.099666 188.538481,188.099666 C188.343603,188.099666 188.148724,188.087882 187.953846,188.064313 C189.048162,188.794926 190.337356,189.222296 191.731485,189.222296 C196.258656,189.222296 198.73211,185.294269 198.73211,181.892599 C198.73211,181.782614 198.73211,181.672629 198.724614,181.562644 C199.204315,181.201266 199.624052,180.745615 199.953846,180.227115 L199.930611,180.216903 Z" id="twitter"></path>
        </g>
    </g>
</svg>